<svg xmlns="http://www.w3.org/2000/svg" viewBox="0 0 512 512" fill="#FFA500"><path d="M511.254 196.88a14.997 14.997 0 00-12.077-10.17L340.91 163.502l-71.458-144.79a15 15 0 00-26.902 0l-71.458 144.79L12.824 186.71a14.998 14.998 0 00-8.361 25.516l114.171 112.702-27.303 159.186a15.001 15.001 0 0021.764 15.813L256 424.798l142.904 75.129a14.985 14.985 0 006.979 1.723 15 15 0 0014.786-17.536l-27.302-159.186 114.171-112.702a15 15 0 003.716-15.346zM366.722 309.075a15.002 15.002 0 00-4.246 13.211l23.487 136.943-122.983-64.656a14.99 14.99 0 00-13.96 0l-122.983 64.656 23.488-136.943a15 15 0 00-4.247-13.211l-98.316-97.05 136.272-19.983a15 15 0 0011.275-8.203L256 59.243l61.491 124.596a15.002 15.002 0 0011.274 8.203l136.272 19.983-98.315 97.05z"/><path d="M271.001 189.985v-16.509c0-8.284-6.716-15-15-15-8.284 0-15 6.716-15 15v107.58a44.79 44.79 0 00-15-2.58c-24.813 0-45 20.187-45 45s20.187 45 45 45 45-20.187 45-45v-102.43c17.461 6.191 30 22.874 30 42.43v30c0 8.284 6.716 15 15 15s15-6.716 15-15v-30c0-36.22-25.808-66.523-60-73.491zm-45 148.49c-8.271 0-15-6.729-15-15s6.729-15 15-15 15 6.729 15 15-6.729 15-15 15z"/></svg>