<svg xmlns="http://www.w3.org/2000/svg" viewBox="0 0 512 512" fill="#FFA500"><path d="M226 308.121c-8.276 0-15 6.724-15 15s6.724 15 15 15 15-6.724 15-15-6.724-15-15-15z"/><path d="M499.158 186.363l-158.256-23.232L269.447 18.36c-5.039-10.254-21.855-10.254-26.895 0l-71.455 144.771-158.255 23.232c-12.264 1.779-17.193 16.926-8.32 25.576l114.105 112.69-27.29 159.126c-2.105 12.25 10.883 21.622 21.753 15.806L256 424.444l142.91 75.117c10.887 5.773 23.868-3.5 21.753-15.806l-27.29-159.126 114.105-112.69c8.874-8.65 3.944-23.797-8.32-25.576zM331 293.121c0 8.291-6.709 15-15 15s-15-6.709-15-15v-30c0-19.556-12.539-36.24-30-42.437v102.437c0 24.814-20.186 45-45 45s-45-20.186-45-45 20.186-45 45-45c5.284 0 10.285 1.082 15 2.763V173.121c0-8.291 6.709-15 15-15s15 6.709 15 15v16.518c34.191 6.969 60 37.266 60 73.482v30z"/></svg>