<svg xmlns="http://www.w3.org/2000/svg" width="531" height="525"><title>piano and co</title><defs><clipPath id="a"><path d="M0 0h531v525H0z"/></clipPath></defs><g data-name="Web 1920 – 1" clip-path="url(#a)"><path fill="rgba(255,255,255,0)" d="M0 0h531v525H0z"/><g data-name="Groupe 3"><g data-name="Ellipse 2" transform="translate(9)" fill="#fff" stroke="#000" stroke-width="6"><circle cx="260.5" cy="260.5" r="260.5" stroke="none"/><circle cx="260.5" cy="260.5" r="257.5" fill="none"/></g><g data-name="Rectangle 1" fill="#030303" stroke="#707070"><path stroke="none" d="M181 122h64v199h-64z"/><path fill="none" d="M181.5 122.5h63v198h-63z"/></g><g data-name="Groupe 2"><g data-name="Ellipse 1" transform="rotate(-90 209.5 31.5)" fill="#fff" stroke="#000" stroke-width="8"><circle cx="91.5" cy="91.5" r="91.5" stroke="none"/><circle cx="91.5" cy="91.5" r="87.5" fill="none"/></g><g data-name="Groupe 1"><path data-name="Tracé 48" d="M269.081 180.146v-7.552h-60.42v-10.741h60.42V154.3h60.167a2.456 2.456 0 00.252-.027v25.9a2.445 2.445 0 00-.252-.027h-60.167z"/><path data-name="Tracé 49" d="M269.081 122.412h60.42v25.873c-.085-.008-.165-.027-.252-.027h-60.168v-7.553h-60.42v-10.74h60.42z"/><path data-name="Tracé 50" d="M329.5 89.348v27.024h-60.419v-7.553h-60.42V89.35z"/><path data-name="Tracé 51" d="M208.661 210.187v-16.446h60.42v-7.554h60.167a2.457 2.457 0 00.252-.027v24.027z"/></g></g><text data-name="piano and co" transform="translate(86 381)" font-size="63" font-family="HelveticaNeue, Helvetica Neue"><tspan x="0" y="0">piano and co</tspan></text></g></g></svg>