<svg xmlns="http://www.w3.org/2000/svg" width="443.981" height="443.981"><path d="M443.981 134.98l-25.167-14.274c-25.163-14.256-18.17-17.184-29.362-39.555-11.177-22.374-46.138-22.374-46.138-22.374L45.522 122.615l315.28 53.775 83.179-41.41zM357.998 183.47L45.522 128.414v58.292L0 204.879v39.14l76.761 11.217 17.873 95.922c1.062 5.703 2.779 5.703 3.849 0l16.823-90.295 46.961 6.869v70.482l-20.45-1.503v19.552l85.464 6.284v-19.532l-19.404-1.443v-67.196l68.693 10.039 17.986 96.519c1.058 5.694 2.785 5.694 3.851 0l16.928-90.856 18.129 2.646.773-37.518 23.761-13.971V183.47zM195.3 340.655l-20.442-1.503v-69.581l20.442 2.989v68.095zm117.963-75.132L24.9 224.632l44.564-18.358 6.508.958-19.274 13.026 10.489 2.787 13.259-15.154 19.556 2.875-18.149 12.271 10.487 2.789 12.553-14.347 19.162 2.83-17.049 11.517 10.487 2.797 11.846-13.549 42.801 6.314-14.839 10.02 10.487 2.798 10.436-11.924 17.953 2.639-13.721 9.285 10.487 2.797 9.72-11.129 41.603 6.132-11.511 7.79 10.481 2.789 8.327-9.505 40.783 6.019-9.289 6.292 10.487 2.785 6.901-7.891 32.22 4.753-19.402 20.485z"/><path d="M364.642 246.48l-24.469 13.966v33.214l103.808-70.615v-79.524l-79.339 40.736z"/></svg>